<svg width="85" height="107" viewBox="0 0 85 107" fill="none" xmlns="http://www.w3.org/2000/svg">
<path d="M13 61.6C13.5667 61.6 14.1833 61.55 14.85 61.45C15.55 61.3167 16.0667 61.15 16.4 60.95V56.95L12.8 57.25C11.8667 57.3167 11.1 57.5167 10.5 57.85C9.9 58.1833 9.6 58.6833 9.6 59.35C9.6 60.0167 9.85 60.5667 10.35 61C10.8833 61.4 11.7667 61.6 13 61.6ZM12.6 41.95C14.4 41.95 16.0333 42.1333 17.5 42.5C19 42.8667 20.2667 43.4333 21.3 44.2C22.3667 44.9333 23.1833 45.8833 23.75 47.05C24.3167 48.1833 24.6 49.5333 24.6 51.1V62.3C24.6 63.1667 24.35 63.8833 23.85 64.45C23.3833 64.9833 22.8167 65.45 22.15 65.85C19.9833 67.15 16.9333 67.8 13 67.8C11.2333 67.8 9.63333 67.6333 8.2 67.3C6.8 66.9667 5.58333 66.4667 4.55 65.8C3.55 65.1333 2.76667 64.2833 2.2 63.25C1.66667 62.2167 1.4 61.0167 1.4 59.65C1.4 57.35 2.08333 55.5833 3.45 54.35C4.81667 53.1167 6.93333 52.35 9.8 52.05L16.35 51.35V51C16.35 50.0333 15.9167 49.35 15.05 48.95C14.2167 48.5167 13 48.3 11.4 48.3C10.1333 48.3 8.9 48.4333 7.7 48.7C6.5 48.9667 5.41667 49.3 4.45 49.7C4.01667 49.4 3.65 48.95 3.35 48.35C3.05 47.7167 2.9 47.0667 2.9 46.4C2.9 45.5333 3.1 44.85 3.5 44.35C3.93333 43.8167 4.58333 43.3667 5.45 43C6.41667 42.6333 7.55 42.3667 8.85 42.2C10.1833 42.0333 11.4333 41.95 12.6 41.95ZM38.2973 66.95C37.9639 67.05 37.4306 67.15 36.6973 67.25C35.9973 67.35 35.2639 67.4 34.4973 67.4C33.7639 67.4 33.0973 67.35 32.4973 67.25C31.9306 67.15 31.4473 66.95 31.0473 66.65C30.6473 66.35 30.3306 65.95 30.0973 65.45C29.8973 64.9167 29.7973 64.2333 29.7973 63.4V48.4C29.7973 47.6333 29.9306 46.9833 30.1973 46.45C30.4973 45.8833 30.9139 45.3833 31.4473 44.95C31.9806 44.5167 32.6306 44.1333 33.3973 43.8C34.1973 43.4333 35.0473 43.1167 35.9473 42.85C36.8473 42.5833 37.7806 42.3833 38.7473 42.25C39.7139 42.0833 40.6806 42 41.6473 42C43.2473 42 44.5139 42.3167 45.4473 42.95C46.3806 43.55 46.8473 44.55 46.8473 45.95C46.8473 46.4167 46.7806 46.8833 46.6473 47.35C46.5139 47.7833 46.3473 48.1833 46.1473 48.55C45.4473 48.55 44.7306 48.5833 43.9973 48.65C43.2639 48.7167 42.5473 48.8167 41.8473 48.95C41.1473 49.0833 40.4806 49.2333 39.8473 49.4C39.2473 49.5333 38.7306 49.7 38.2973 49.9V66.95ZM70.8539 59.75C70.8539 62.2833 69.9039 64.2667 68.0039 65.7C66.1039 67.1333 63.3039 67.85 59.6039 67.85C58.2039 67.85 56.9039 67.75 55.7039 67.55C54.5039 67.35 53.4706 67.05 52.6039 66.65C51.7706 66.2167 51.1039 65.6833 50.6039 65.05C50.1372 64.4167 49.9039 63.6667 49.9039 62.8C49.9039 62 50.0706 61.3333 50.4039 60.8C50.7372 60.2333 51.1372 59.7667 51.6039 59.4C52.5706 59.9333 53.6706 60.4167 54.9039 60.85C56.1706 61.25 57.6206 61.45 59.2539 61.45C60.2872 61.45 61.0706 61.3 61.6039 61C62.1706 60.7 62.4539 60.3 62.4539 59.8C62.4539 59.3333 62.2539 58.9667 61.8539 58.7C61.4539 58.4333 60.7872 58.2167 59.8539 58.05L58.3539 57.75C55.4539 57.1833 53.2872 56.3 51.8539 55.1C50.4539 53.8667 49.7539 52.1167 49.7539 49.85C49.7539 48.6167 50.0206 47.5 50.5539 46.5C51.0872 45.5 51.8372 44.6667 52.8039 44C53.7706 43.3333 54.9206 42.8167 56.2539 42.45C57.6206 42.0833 59.1206 41.9 60.7539 41.9C61.9872 41.9 63.1372 42 64.2039 42.2C65.3039 42.3667 66.2539 42.6333 67.0539 43C67.8539 43.3667 68.4872 43.85 68.9539 44.45C69.4206 45.0167 69.6539 45.7 69.6539 46.5C69.6539 47.2667 69.5039 47.9333 69.2039 48.5C68.9372 49.0333 68.5872 49.4833 68.1539 49.85C67.8872 49.6833 67.4872 49.5167 66.9539 49.35C66.4206 49.15 65.8372 48.9833 65.2039 48.85C64.5706 48.6833 63.9206 48.55 63.2539 48.45C62.6206 48.35 62.0372 48.3 61.5039 48.3C60.4039 48.3 59.5539 48.4333 58.9539 48.7C58.3539 48.9333 58.0539 49.3167 58.0539 49.85C58.0539 50.2167 58.2206 50.5167 58.5539 50.75C58.8872 50.9833 59.5206 51.2 60.4539 51.4L62.0039 51.75C65.2039 52.4833 67.4706 53.5 68.8039 54.8C70.1706 56.0667 70.8539 57.7167 70.8539 59.75Z" fill="#183B56"/>
<circle cx="79" cy="61" r="6" fill="#36B37E"/>
</svg>
